<?xml version="1.0" encoding="utf-8"?>
<!-- Generator: Adobe Illustrator 19.0.0, SVG Export Plug-In . SVG Version: 6.00 Build 0)  -->
<svg version="1.1" id="Layer_1" xmlns="http://www.w3.org/2000/svg" xmlns:xlink="http://www.w3.org/1999/xlink" x="0px" y="0px"
	 viewBox="0 0 500 500" style="enable-background:new 0 0 500 500;" xml:space="preserve">
<style type="text/css">
	.st0{fill:#010202;}
	.st1{fill:#E52620;}
</style>
<g id="XMLID_1_">
	<path id="XMLID_5_" class="st0" d="M67.5,228h19.6c11.5,0,18.4,6.2,18.4,15.2v0.1c0,10.2-8.7,15.4-19.4,15.4h-8V272H67.5V228z
		 M86.5,250.2c5.3,0,8.4-2.9,8.4-6.7v-0.1c0-4.3-3.3-6.7-8.6-6.7h-8.2v13.4L86.5,250.2L86.5,250.2z"/>
	<path id="XMLID_8_" class="st0" d="M112.3,228h22c6.1,0,10.9,1.6,14,4.5c2.7,2.4,4.1,5.9,4.1,10v0.1c0,7.1-4.2,11.5-10.3,13.6
		l11.7,15.7h-12.4l-10.3-14.1H131h-8.2V272h-10.6V228z M133.6,249.4c5.2,0,8.1-2.5,8.1-6.2V243c0-4.1-3.2-6.3-8.3-6.3h-10.5v12.6
		L133.6,249.4L133.6,249.4z"/>
	<path id="XMLID_11_" class="st0" d="M158,250.1V250c0-12.5,10.8-22.7,25.6-22.7c14.8,0,25.5,10.1,25.5,22.6v0.1
		c0,12.5-10.8,22.7-25.6,22.7S158,262.6,158,250.1z M198,250.1V250c0-7.5-6-13.8-14.6-13.8c-8.5,0-14.4,6.1-14.4,13.7v0.1
		c0,7.5,6,13.8,14.6,13.8S198,257.7,198,250.1z"/>
	<path id="XMLID_12_" class="st0" d="M211.3,266l6.7-6.8c2.7,2.8,5.4,4.4,8.8,4.4c4,0,6.5-2.2,6.5-7.3V228H244v28.7
		c0,5.2-1.6,9.1-4.5,11.7c-3,2.7-7.3,4.1-12.5,4.1C219.5,272.6,214.6,269.6,211.3,266z"/>
	<polygon id="XMLID_13_" class="st0" points="254.1,228 290.4,228 290.4,236.6 264.6,236.6 264.6,245.5 287.3,245.5 287.3,254.1 
		264.6,254.1 264.6,263.4 290.7,263.4 290.7,272 254.1,272 254.1,228 	"/>
	<path id="XMLID_14_" class="st0" d="M296.1,250.1V250c0-12.5,10.3-22.7,25.1-22.7c9.1,0,14.5,2.8,19,6.8l-6.7,7.1
		c-3.7-3.1-7.5-5-12.3-5c-8.1,0-13.9,6.1-13.9,13.7v0.1c0,7.5,5.7,13.8,13.9,13.8c5.5,0,8.9-2,12.6-5.1l6.7,6.2
		c-4.9,4.8-10.4,7.8-19.7,7.8C306.6,272.7,296.1,262.7,296.1,250.1z"/>
	<polygon id="XMLID_15_" class="st0" points="358.6,236.9 343.9,236.9 343.9,228 383.8,228 383.8,236.9 369.1,236.9 369.1,272 
		358.6,272 358.6,236.9 	"/>
	<polygon id="XMLID_16_" class="st1" points="403.2,249.6 387.2,228 399.5,228 409.6,242.3 419.8,228 431.8,228 415.7,249.5 
		432.5,272 420.1,272 409.4,256.9 398.5,272 386.5,272 	"/>
</g>
</svg>
